# xmcd
#
# Track frame offsets:
#	150
#	38130
#	95644
#	131800
#	177115
#	273591
#
# Disc length: 4440 seconds
#
# Revision: 0
# Processed by: cddbd v1.5.1PL0 Copyright (c) Steve Scherf et al.
# Submitted via: EasyCDDAExtractor 8.0.2.1
#
DISCID=52115606
DTITLE=Nusrat Fateh Ali Khan - The Essential
DYEAR=2003
DGENRE=Qawwali
TTITLE0=Dam Mast Qalander
TTITLE1=Sanoon Ek Pal
TTITLE2=Mera Piya Ghar Aaya
TTITLE3=Ali Da Malang Main
TTITLE4=Yeh Jo Halka Halka
TTITLE5=DATA
EXTD=
EXTT0=
EXTT1=
EXTT2=
EXTT3=
EXTT4=
EXTT5=
PLAYORDER=
